<svg width="32" height="32" viewBox="0 0 32 32" fill="none" xmlns="http://www.w3.org/2000/svg">
<path d="M12.3333 29.3333L11.8 25.0667C11.5111 24.9555 11.2391 24.8222 10.984 24.6667C10.728 24.5111 10.4778 24.3444 10.2333 24.1667L6.26664 25.8333L2.59998 19.5L6.03331 16.9C6.01109 16.7444 5.99998 16.5942 5.99998 16.4493V15.5493C5.99998 15.4053 6.01109 15.2555 6.03331 15.1L2.59998 12.5L6.26664 6.16666L10.2333 7.83332C10.4778 7.65555 10.7333 7.48888 11 7.33332C11.2666 7.17777 11.5333 7.04443 11.8 6.93332L12.3333 2.66666H19.6666L20.2 6.93332C20.4889 7.04443 20.7613 7.17777 21.0173 7.33332C21.2724 7.48888 21.5222 7.65555 21.7666 7.83332L25.7333 6.16666L29.4 12.5L25.9666 15.1C25.9889 15.2555 26 15.4053 26 15.5493V16.4493C26 16.5942 25.9778 16.7444 25.9333 16.9L29.3666 19.5L25.7 25.8333L21.7666 24.1667C21.5222 24.3444 21.2666 24.5111 21 24.6667C20.7333 24.8222 20.4666 24.9555 20.2 25.0667L19.6666 29.3333H12.3333ZM14.6666 26.6667H17.3L17.7666 23.1333C18.4555 22.9555 19.0946 22.6942 19.684 22.3493C20.2724 22.0053 20.8111 21.5889 21.3 21.1L24.6 22.4667L25.9 20.2L23.0333 18.0333C23.1444 17.7222 23.2222 17.3942 23.2666 17.0493C23.3111 16.7053 23.3333 16.3555 23.3333 16C23.3333 15.6444 23.3111 15.2942 23.2666 14.9493C23.2222 14.6053 23.1444 14.2778 23.0333 13.9667L25.9 11.8L24.6 9.53332L21.3 10.9333C20.8111 10.4222 20.2724 9.99421 19.684 9.64932C19.0946 9.30532 18.4555 9.04443 17.7666 8.86666L17.3333 5.33332H14.7L14.2333 8.86666C13.5444 9.04443 12.9058 9.30532 12.3173 9.64932C11.728 9.99421 11.1889 10.4111 10.7 10.9L7.39998 9.53332L6.09998 11.8L8.96664 13.9333C8.85553 14.2667 8.77775 14.6 8.73331 14.9333C8.68887 15.2667 8.66664 15.6222 8.66664 16C8.66664 16.3555 8.68887 16.7 8.73331 17.0333C8.77775 17.3667 8.85553 17.7 8.96664 18.0333L6.09998 20.2L7.39998 22.4667L10.7 21.0667C11.1889 21.5778 11.728 22.0053 12.3173 22.3493C12.9058 22.6942 13.5444 22.9555 14.2333 23.1333L14.6666 26.6667ZM16 21.3333C16.3778 21.3333 16.6946 21.2053 16.9506 20.9493C17.2058 20.6942 17.3333 20.3778 17.3333 20C17.3333 19.6222 17.2058 19.3053 16.9506 19.0493C16.6946 18.7942 16.3778 18.6667 16 18.6667C15.6222 18.6667 15.3058 18.7942 15.0506 19.0493C14.7946 19.3053 14.6666 19.6222 14.6666 20C14.6666 20.3778 14.7946 20.6942 15.0506 20.9493C15.3058 21.2053 15.6222 21.3333 16 21.3333ZM14.6666 17.3333H17.3333V10.6667H14.6666V17.3333Z" fill="black"/>
</svg>
