<svg width="35" height="35" viewBox="0 0 35 35" fill="none" xmlns="http://www.w3.org/2000/svg">
<circle cx="17.5" cy="17.5" r="17.5" fill="#004696"/>
<path fill-rule="evenodd" clip-rule="evenodd" d="M9.16663 12.2917V10.1896C9.16663 9.16876 9.74371 8.23439 10.6573 7.77709L10.9531 7.62918C12.0157 7.09784 13.1951 6.84315 14.3823 6.88867C15.5695 6.93419 16.726 7.27845 17.7448 7.88959C18.3605 8.2592 19.0488 8.49125 19.7626 8.56982C20.4764 8.64839 21.1988 8.57163 21.8802 8.3448L25.3062 7.20314C25.508 7.136 25.7245 7.12635 25.9315 7.17527C26.1385 7.2242 26.3278 7.32976 26.4782 7.48015C26.6285 7.63054 26.7341 7.81982 26.783 8.0268C26.832 8.23378 26.8223 8.45029 26.7552 8.65209L24.8593 14.3427L26.7593 19.0938C26.8173 19.2387 26.8451 19.394 26.8409 19.55C26.8367 19.7061 26.8007 19.8596 26.7351 20.0012C26.6694 20.1429 26.5755 20.2696 26.4592 20.3736C26.3428 20.4777 26.2064 20.5568 26.0583 20.6063L22.5395 21.7792C21.5731 22.1013 20.5484 22.2106 19.5357 22.0995C18.5231 21.9884 17.5465 21.6595 16.6729 21.1354C15.9546 20.7044 15.1393 20.4615 14.3022 20.4293C13.4652 20.3971 12.6336 20.5765 11.8843 20.9511L11.25 21.2688V26.875C11.25 27.1513 11.1402 27.4162 10.9449 27.6116C10.7495 27.8069 10.4846 27.9167 10.2083 27.9167C9.93203 27.9167 9.66707 27.8069 9.47172 27.6116C9.27637 27.4162 9.16663 27.1513 9.16663 26.875V12.2917Z" fill="white"/>
</svg>
