<svg width="27" height="27" viewBox="0 0 27 27" fill="none" xmlns="http://www.w3.org/2000/svg">
<path d="M24.75 7.875V18C24.75 18.7987 24.3225 19.53 23.625 19.935V21.6562C23.625 22.1175 23.2425 22.5 22.7813 22.5H22.2188C21.7575 22.5 21.375 22.1175 21.375 21.6562V20.25H13.5V21.6562C13.5 22.1175 13.1175 22.5 12.6563 22.5H12.0938C11.6325 22.5 11.25 22.1175 11.25 21.6562V19.935C10.5638 19.53 10.125 18.7987 10.125 18V7.875C10.125 4.5 13.5 4.5 17.4375 4.5C21.375 4.5 24.75 4.5 24.75 7.875ZM14.625 16.875C14.625 16.2563 14.1188 15.75 13.5 15.75C12.8813 15.75 12.375 16.2563 12.375 16.875C12.375 17.4937 12.8813 18 13.5 18C14.1188 18 14.625 17.4937 14.625 16.875ZM22.5 16.875C22.5 16.2563 21.9938 15.75 21.375 15.75C20.7563 15.75 20.25 16.2563 20.25 16.875C20.25 17.4937 20.7563 18 21.375 18C21.9938 18 22.5 17.4937 22.5 16.875ZM22.5 7.875H12.375V12.375H22.5V7.875ZM7.875 10.6875C7.84125 9.135 6.55875 7.875 5.00625 7.93125C4.26038 7.94632 3.55102 8.25699 3.03416 8.79495C2.51729 9.33291 2.23523 10.0541 2.25 10.8C2.2647 11.4381 2.49513 12.0524 2.90374 12.5427C3.31235 13.033 3.87502 13.3705 4.5 13.5V22.5H5.625V13.5C6.9525 13.23 7.875 12.0487 7.875 10.6875Z" fill="white"/>
</svg>
