<svg width="31" height="31" viewBox="0 0 31 31" fill="none" xmlns="http://www.w3.org/2000/svg">
<path d="M24.0986 3.23169V13.5624H22.0681V5.20019H21.9693L19.623 6.8645V4.98706L22.0681 3.23169H24.0948H24.0986Z" fill="white"/>
<path fill-rule="evenodd" clip-rule="evenodd" d="M22.01 27.3149C19.807 27.3149 18.7007 26.0419 18.5961 24.8388H20.5414C20.6537 25.2708 21.2059 25.7106 22.0391 25.7106C23.6356 25.7106 24.2943 24.1044 24.2342 22.1146H24.1199C23.8332 22.8703 23.0155 23.5523 21.6767 23.5523C19.9136 23.5523 18.3442 22.3646 18.3442 20.1461C18.3442 17.9219 19.9872 16.5908 22.1669 16.5908C24.2788 16.5908 26.164 17.8231 26.164 21.7969C26.164 25.4142 24.7632 27.3149 22.0081 27.3149H22.01ZM22.1301 22.0158C23.1066 22.0158 23.9378 21.3648 23.9378 20.1326C23.9378 18.9061 23.1667 18.1796 22.1165 18.1796C21.1091 18.1796 20.3205 18.9061 20.3205 20.1171C20.3205 21.3571 21.1304 22.0158 22.1301 22.0158Z" fill="white"/>
<path d="M8.71875 26.1563C8.71875 26.4132 8.61669 26.6596 8.43501 26.8413C8.25334 27.0229 8.00693 27.125 7.75 27.125C7.49307 27.125 7.24667 27.0229 7.06499 26.8413C6.88332 26.6596 6.78125 26.4132 6.78125 26.1563V7.18232L4.56088 9.40463C4.47081 9.4947 4.36388 9.56615 4.2462 9.6149C4.12851 9.66364 4.00238 9.68873 3.875 9.68873C3.74762 9.68873 3.62149 9.66364 3.50381 9.6149C3.38613 9.56615 3.2792 9.4947 3.18913 9.40463C3.09906 9.31456 3.02761 9.20763 2.97886 9.08995C2.93012 8.97227 2.90503 8.84614 2.90503 8.71876C2.90503 8.59138 2.93012 8.46525 2.97886 8.34757C3.02761 8.22988 3.09906 8.12295 3.18913 8.03288L7.06413 4.15982L7.07769 4.14626C7.25982 3.96937 7.50432 3.87139 7.7582 3.87357C8.01208 3.87575 8.25487 3.9779 8.43394 4.15788L12.3089 8.03288C12.399 8.12283 12.4705 8.22963 12.5193 8.34719C12.5681 8.46476 12.5932 8.59079 12.5933 8.71807C12.5934 8.84536 12.5684 8.97142 12.5198 9.08906C12.4712 9.20669 12.3999 9.31359 12.3099 9.40366C12.22 9.49373 12.1132 9.56521 11.9956 9.614C11.878 9.6628 11.752 9.68796 11.6247 9.68805C11.4974 9.68814 11.3714 9.66315 11.2537 9.61453C11.1361 9.5659 11.0292 9.49458 10.9391 9.40463L8.71875 7.18232V26.1563Z" fill="white"/>
</svg>
