<svg width="40" height="38" viewBox="0 0 40 38" fill="none" xmlns="http://www.w3.org/2000/svg">
<path d="M24.75 10.875V21C24.75 21.7987 24.3225 22.53 23.625 22.935V24.6562C23.625 25.1175 23.2425 25.5 22.7812 25.5H22.2187C21.7575 25.5 21.375 25.1175 21.375 24.6562V23.25H13.5V24.6562C13.5 25.1175 13.1175 25.5 12.6562 25.5H12.0937C11.6325 25.5 11.25 25.1175 11.25 24.6562V22.935C10.5637 22.53 10.125 21.7987 10.125 21V10.875C10.125 7.5 13.5 7.5 17.4375 7.5C21.375 7.5 24.75 7.5 24.75 10.875ZM14.625 19.875C14.625 19.2562 14.1187 18.75 13.5 18.75C12.8812 18.75 12.375 19.2562 12.375 19.875C12.375 20.4938 12.8812 21 13.5 21C14.1187 21 14.625 20.4938 14.625 19.875ZM22.5 19.875C22.5 19.2562 21.9937 18.75 21.375 18.75C20.7562 18.75 20.25 19.2562 20.25 19.875C20.25 20.4938 20.7562 21 21.375 21C21.9937 21 22.5 20.4938 22.5 19.875ZM22.5 10.875H12.375V15.375H22.5V10.875ZM7.87497 13.6875C7.84122 12.135 6.55872 10.875 5.00622 10.9313C4.26035 10.9463 3.55099 11.257 3.03413 11.7949C2.51726 12.3329 2.2352 13.0541 2.24997 13.8C2.26466 14.4381 2.4951 15.0524 2.90371 15.5427C3.31232 16.033 3.87499 16.3705 4.49997 16.5V25.5H5.62497V16.5C6.95247 16.23 7.87497 15.0488 7.87497 13.6875Z" fill="white"/>
<path d="M28.3598 32.2496L17.8242 21.4531L20.5539 18.7894L31.0895 29.586L28.3598 32.2496ZM20.3904 32.1521L17.7267 29.4225L28.5233 18.8869L31.187 21.6166L20.3904 32.1521Z" fill="white"/>
</svg>
