<svg width="375" height="812" viewBox="0 0 375 812" fill="none" xmlns="http://www.w3.org/2000/svg">
<g clip-path="url(#clip0_875_25)">
<rect width="375" height="812" fill="white"/>
<rect width="375" height="812" fill="url(#paint0_linear_875_25)"/>
<path fill-rule="evenodd" clip-rule="evenodd" d="M271.673 300C266.994 300.124 262.302 300.36 257.603 300.774L258.327 314.506C262.842 314.116 267.364 313.865 271.889 313.754L271.673 300ZM246.738 302.035C239.512 303.105 232.224 304.629 225.02 307.079L227.733 320.386C234.28 318.162 241.063 316.725 247.954 315.705L246.738 302.035ZM214.232 311.686C212.073 312.822 209.983 314.135 207.977 315.615L207.968 315.628L207.956 315.633C205.093 317.782 202.075 320.51 199.612 324.474C197.828 327.346 196.368 330.978 196.027 335.272L206.636 336.674C206.715 335.667 207.148 334.336 207.927 333.085H207.931V333.08C209.186 331.055 211.069 329.215 213.307 327.532L213.315 327.527C214.911 326.354 216.572 325.312 218.288 324.41L214.232 311.686ZM208.77 342.8L201.892 353.312C203.523 355.09 205.232 356.455 206.883 357.597L206.904 357.609L206.925 357.624C212.405 361.34 218.057 363.437 223.296 365.428L226.307 352.228C221.07 350.237 216.133 348.316 211.902 345.451C210.69 344.612 209.628 343.736 208.77 342.8V342.8ZM236.537 355.941L233.597 369.164L234.987 369.68L236.695 370.33C242.346 372.522 247.76 374.863 252.599 378.102L257.509 365.89C251.658 361.97 245.584 359.409 239.731 357.14L239.714 357.135L237.961 356.467L236.537 355.941ZM267.493 375.054L259.949 384.784C261.732 387.085 263.067 389.853 263.716 392.712L263.72 392.727L263.725 392.749C264.499 396.088 264.501 400.015 263.895 403.981L274.357 406.642C275.21 401.042 275.348 394.894 273.944 388.825C272.722 383.458 270.39 378.797 267.493 375.054V375.054ZM260.243 412.272C259.09 413.723 257.816 415.031 256.441 416.174H256.437C252.689 419.316 248.341 421.684 243.723 423.72L247.167 436.736C252.218 434.51 257.405 431.779 262.252 427.713L262.265 427.701L262.271 427.696C264.262 426.034 266.103 424.132 267.766 422.019L260.243 412.272ZM233.923 427.386C227.233 429.53 220.395 431.164 213.474 432.549L215.106 446.149C222.23 444.721 229.382 443.016 236.491 440.737L233.923 427.386ZM203.06 434.425C196.093 435.56 189.088 436.485 182.063 437.275L182.983 450.981C190.117 450.182 197.263 449.241 204.399 448.077L203.06 434.425ZM171.504 438.354C164.464 439.02 157.407 439.561 150.344 440.018L150.877 453.759C158.009 453.3 165.147 452.751 172.283 452.076L171.504 438.354ZM139.731 440.638C135.498 440.874 131.254 441.067 127 441.246L127.35 455C131.63 454.825 135.91 454.621 140.189 454.389L139.731 440.638Z" fill="white"/>
<path d="M127 334C105.461 334 88 351.046 88 372.072C88 379.104 89.4099 386.367 93.4559 391.602L127 435L160.544 391.602C164.219 386.847 166 378.442 166 372.072C166 351.046 148.539 334 127 334ZM127 356.051C136.063 356.051 143.412 363.225 143.412 372.072C143.412 380.92 136.063 388.094 127 388.094C117.937 388.094 110.588 380.92 110.588 372.072C110.588 363.225 117.937 356.051 127 356.051Z" fill="#E85A58"/>
<g clip-path="url(#clip1_875_25)">
<path d="M279.798 305.685C279.798 311.315 278.403 315.872 276.696 315.872C274.982 315.872 273.593 311.315 273.593 305.685C273.593 300.055 274.982 295.49 276.696 295.49C278.403 295.49 279.798 300.063 279.798 305.685Z" fill="#2F2F2F"/>
<path d="M275.348 314.869C275.348 314.869 276.174 316.362 277.068 316.868C279.094 318.009 281.912 317.588 283.606 314.984L282.698 308.779L276.967 310.012L275.348 314.869V314.869Z" fill="#2F2F2F"/>
<path d="M216.512 318.591C216.512 324.604 214.636 329.483 212.333 329.483C210.023 329.483 208.146 324.604 208.146 318.591C208.146 312.571 210.023 307.691 212.333 307.691C214.636 307.699 216.512 312.571 216.512 318.591Z" fill="#2F2F2F"/>
<path d="M210.51 328.419C210.51 328.419 211.621 330.019 212.841 330.556C215.571 331.773 219.364 331.322 221.647 328.549L220.421 321.916L212.698 323.233L210.51 328.419V328.419Z" fill="#2F2F2F"/>
<path d="M224.127 318.591C224.127 324.604 222.25 329.483 219.947 329.483C217.637 329.483 215.76 324.604 215.76 318.591C215.76 312.571 217.637 307.691 219.947 307.691C222.25 307.699 224.127 312.571 224.127 318.591Z" fill="#2F2F2F"/>
<path d="M261.948 318.591C261.948 324.604 260.071 329.483 257.768 329.483C255.458 329.483 253.582 324.604 253.582 318.591C253.582 312.571 255.458 307.691 257.768 307.691C260.071 307.699 261.948 312.571 261.948 318.591V318.591Z" fill="#2F2F2F"/>
<path d="M255.946 328.419C255.946 328.419 257.057 330.019 258.276 330.556C261.006 331.773 264.8 331.322 267.09 328.549L265.864 321.916L258.141 323.233L255.946 328.419Z" fill="#2F2F2F"/>
<path d="M277.678 248.176H212.177C205.382 248.176 200.559 252.872 200.559 259.781V309.063C200.559 316.738 206.066 322.965 212.854 322.965H250.567C260.471 322.965 263.709 321.517 269.766 317.006C275.991 312.372 287.162 304.712 287.162 298.431V259.712C287.162 252.037 284.466 248.176 277.678 248.176V248.176Z" fill="#FCC21B"/>
<mask id="mask0_875_25" style="mask-type:alpha" maskUnits="userSpaceOnUse" x="200" y="248" width="88" height="75">
<path d="M277.678 248.176H212.177C205.382 248.176 200.559 252.872 200.559 259.781V309.063C200.559 316.738 206.066 322.965 212.854 322.965H250.567C260.471 322.965 263.709 321.517 269.766 317.006C275.991 312.372 287.162 304.712 287.162 298.431V259.712C287.162 252.037 284.466 248.176 277.678 248.176V248.176Z" fill="white"/>
</mask>
<g mask="url(#mask0_875_25)">
<path d="M200.193 301.686H258.676V324.229H200.193V301.686ZM258.676 328.893L289.411 306.183V280.837L258.676 301.686V328.893Z" fill="#ED6C30"/>
</g>
<path d="M254.72 290.319C254.72 292.893 252.87 294.992 250.587 294.992H210.89C208.614 294.992 206.764 292.893 206.764 290.319V260.646C206.764 258.072 208.614 255.974 210.89 255.974H250.581C252.864 255.974 254.713 258.072 254.713 260.646V290.319H254.72Z" fill="#40C0E7"/>
<mask id="mask1_875_25" style="mask-type:alpha" maskUnits="userSpaceOnUse" x="206" y="255" width="49" height="40">
<path d="M254.72 290.319C254.72 292.893 252.87 294.992 250.587 294.992H210.89C208.614 294.992 206.764 292.893 206.764 290.319V260.646C206.764 258.072 208.614 255.974 210.89 255.974H250.581C252.864 255.974 254.713 258.072 254.713 260.646V290.319H254.72Z" fill="white"/>
</mask>
<g mask="url(#mask1_875_25)">
<path d="M204.928 254.174H257.091V267.869H204.928V254.174Z" fill="#2F2F2F"/>
</g>
<mask id="mask2_875_25" style="mask-type:alpha" maskUnits="userSpaceOnUse" x="206" y="255" width="49" height="40">
<path d="M254.72 290.319C254.72 292.893 252.87 294.992 250.587 294.992H210.89C208.614 294.992 206.764 292.893 206.764 290.319V260.646C206.764 258.072 208.614 255.974 210.89 255.974H250.581C252.864 255.974 254.713 258.072 254.713 260.646V290.319H254.72Z" fill="white"/>
</mask>
<g mask="url(#mask2_875_25)">
<path d="M214.162 258.708H247.851V264.912H214.162V258.708Z" fill="white"/>
</g>
<path d="M273.898 276.333C273.898 278.325 272.868 280.592 271.52 281.457L266.5 284.682C264.644 285.862 263.025 284.812 263.025 282.231V261.228C263.025 258.655 264.651 256.563 266.5 256.563H271.52C272.868 256.563 273.898 258.18 273.898 260.156V276.333ZM281.973 259.336C281.973 257.827 281.478 256.602 280.842 256.602H278.579C277.793 256.602 277.116 258.065 277.116 259.857V274.456C277.116 276.249 277.793 277.244 278.579 276.685L280.842 275.123C281.478 274.679 281.973 273.116 281.973 271.607V259.336V259.336Z" fill="#40C0E7"/>
<path d="M211.344 316.048C213.914 316.048 215.998 313.696 215.998 310.794C215.998 307.892 213.914 305.539 211.344 305.539C208.773 305.539 206.69 307.892 206.69 310.794C206.69 313.696 208.773 316.048 211.344 316.048Z" fill="white"/>
<path d="M254.056 310.794C254.056 313.697 251.969 316.048 249.395 316.048C246.834 316.048 244.748 313.697 244.748 310.794C244.748 307.883 246.828 305.539 249.395 305.539C251.969 305.539 254.056 307.883 254.056 310.794Z" fill="white"/>
<path d="M269.562 318.591C269.562 324.604 267.686 329.483 265.383 329.483C263.073 329.483 261.196 324.604 261.196 318.591C261.196 312.571 263.073 307.692 265.383 307.692C267.686 307.699 269.562 312.571 269.562 318.591ZM285.441 305.685C285.441 311.315 284.053 315.872 282.339 315.872C280.625 315.872 279.236 311.315 279.236 305.685C279.236 300.055 280.625 295.49 282.339 295.49C284.059 295.49 285.441 300.063 285.441 305.685Z" fill="#2F2F2F"/>
</g>
<path d="M125.191 491.182H129.186L136.132 508.142H136.388L143.334 491.182H147.329V513H144.197V497.212H143.994L137.56 512.968H134.96L128.525 497.201H128.323V513H125.191V491.182ZM158.752 513.33C157.218 513.33 155.879 512.979 154.736 512.276C153.592 511.572 152.704 510.589 152.072 509.325C151.44 508.06 151.124 506.583 151.124 504.893C151.124 503.195 151.44 501.711 152.072 500.44C152.704 499.168 153.592 498.181 154.736 497.478C155.879 496.775 157.218 496.423 158.752 496.423C160.286 496.423 161.625 496.775 162.768 497.478C163.912 498.181 164.799 499.168 165.432 500.44C166.064 501.711 166.38 503.195 166.38 504.893C166.38 506.583 166.064 508.06 165.432 509.325C164.799 510.589 163.912 511.572 162.768 512.276C161.625 512.979 160.286 513.33 158.752 513.33ZM158.763 510.656C159.757 510.656 160.581 510.393 161.234 509.868C161.888 509.342 162.37 508.643 162.683 507.769C163.003 506.896 163.162 505.933 163.162 504.882C163.162 503.838 163.003 502.879 162.683 502.006C162.37 501.125 161.888 500.418 161.234 499.886C160.581 499.353 159.757 499.087 158.763 499.087C157.761 499.087 156.93 499.353 156.27 499.886C155.616 500.418 155.13 501.125 154.81 502.006C154.498 502.879 154.341 503.838 154.341 504.882C154.341 505.933 154.498 506.896 154.81 507.769C155.13 508.643 155.616 509.342 156.27 509.868C156.93 510.393 157.761 510.656 158.763 510.656ZM183.377 496.636L177.443 513H174.034L168.09 496.636H171.509L175.653 509.229H175.824L179.957 496.636H183.377ZM192.867 513.33C191.255 513.33 189.866 512.986 188.701 512.297C187.544 511.601 186.649 510.624 186.017 509.367C185.392 508.103 185.079 506.622 185.079 504.925C185.079 503.249 185.392 501.771 186.017 500.493C186.649 499.214 187.529 498.217 188.659 497.499C189.795 496.782 191.123 496.423 192.643 496.423C193.566 496.423 194.461 496.576 195.328 496.881C196.194 497.187 196.972 497.666 197.661 498.32C198.35 498.973 198.893 499.822 199.291 500.866C199.688 501.903 199.887 503.163 199.887 504.648V505.777H186.88V503.391H196.766C196.766 502.553 196.595 501.81 196.255 501.164C195.914 500.511 195.434 499.996 194.816 499.619C194.206 499.243 193.488 499.055 192.664 499.055C191.769 499.055 190.988 499.275 190.321 499.715C189.66 500.148 189.149 500.717 188.786 501.42C188.431 502.116 188.254 502.872 188.254 503.689V505.553C188.254 506.647 188.446 507.577 188.829 508.344C189.22 509.112 189.763 509.697 190.459 510.102C191.155 510.5 191.968 510.699 192.899 510.699C193.502 510.699 194.053 510.614 194.55 510.443C195.047 510.266 195.477 510.003 195.839 509.655C196.201 509.307 196.478 508.877 196.67 508.366L199.685 508.909C199.443 509.797 199.01 510.575 198.385 511.242C197.767 511.903 196.99 512.418 196.052 512.787C195.122 513.149 194.06 513.33 192.867 513.33ZM230.569 502.091C230.569 504.42 230.143 506.423 229.291 508.099C228.438 509.768 227.27 511.054 225.786 511.956C224.309 512.851 222.629 513.298 220.747 513.298C218.858 513.298 217.171 512.851 215.686 511.956C214.209 511.054 213.044 509.765 212.192 508.089C211.34 506.413 210.914 504.413 210.914 502.091C210.914 499.761 211.34 497.762 212.192 496.093C213.044 494.417 214.209 493.131 215.686 492.237C217.171 491.335 218.858 490.884 220.747 490.884C222.629 490.884 224.309 491.335 225.786 492.237C227.27 493.131 228.438 494.417 229.291 496.093C230.143 497.762 230.569 499.761 230.569 502.091ZM227.309 502.091C227.309 500.315 227.022 498.82 226.446 497.606C225.878 496.384 225.097 495.461 224.103 494.836C223.115 494.204 221.997 493.888 220.747 493.888C219.49 493.888 218.367 494.204 217.38 494.836C216.393 495.461 215.612 496.384 215.036 497.606C214.468 498.82 214.184 500.315 214.184 502.091C214.184 503.866 214.468 505.365 215.036 506.587C215.612 507.801 216.393 508.724 217.38 509.357C218.367 509.982 219.49 510.294 220.747 510.294C221.997 510.294 223.115 509.982 224.103 509.357C225.097 508.724 225.878 507.801 226.446 506.587C227.022 505.365 227.309 503.866 227.309 502.091ZM237.603 503.284V513H234.418V496.636H237.475V499.3H237.678C238.054 498.433 238.644 497.737 239.446 497.212C240.256 496.686 241.275 496.423 242.504 496.423C243.619 496.423 244.595 496.658 245.433 497.126C246.271 497.588 246.921 498.277 247.383 499.193C247.845 500.109 248.075 501.242 248.075 502.592V513H244.89V502.975C244.89 501.789 244.581 500.862 243.963 500.195C243.345 499.52 242.497 499.183 241.417 499.183C240.678 499.183 240.021 499.342 239.446 499.662C238.878 499.982 238.427 500.45 238.093 501.068C237.766 501.679 237.603 502.418 237.603 503.284Z" fill="white"/>
</g>
<defs>
<linearGradient id="paint0_linear_875_25" x1="187.5" y1="0" x2="187.5" y2="812" gradientUnits="userSpaceOnUse">
<stop stop-color="#003396"/>
<stop offset="1" stop-color="#E85A58" stop-opacity="0.99"/>
</linearGradient>
<clipPath id="clip0_875_25">
<rect width="375" height="812" fill="white"/>
</clipPath>
<clipPath id="clip1_875_25">
<rect width="86.7117" height="98.0433" fill="white" transform="translate(200.45 238.824)"/>
</clipPath>
</defs>
</svg>
