<svg width="32" height="32" viewBox="0 0 32 32" fill="none" xmlns="http://www.w3.org/2000/svg">
<path d="M16 18.6667V21.3333C13.8782 21.3333 11.8434 22.1762 10.3431 23.6765C8.84283 25.1768 7.99998 27.2116 7.99998 29.3333H5.33331C5.33331 26.5044 6.45712 23.7913 8.45751 21.7909C10.4579 19.7905 13.171 18.6667 16 18.6667V18.6667ZM16 17.3333C11.58 17.3333 7.99998 13.7533 7.99998 9.33334C7.99998 4.91334 11.58 1.33334 16 1.33334C20.42 1.33334 24 4.91334 24 9.33334C24 13.7533 20.42 17.3333 16 17.3333ZM16 14.6667C18.9466 14.6667 21.3333 12.28 21.3333 9.33334C21.3333 6.38668 18.9466 4.00001 16 4.00001C13.0533 4.00001 10.6666 6.38668 10.6666 9.33334C10.6666 12.28 13.0533 14.6667 16 14.6667ZM19.46 25.0827C19.2909 24.3713 19.2909 23.6301 19.46 22.9187L18.1373 22.1547L19.4706 19.8453L20.7933 20.6093C21.3242 20.1065 21.9659 19.7356 22.6666 19.5267V18H25.3333V19.5267C26.0426 19.7373 26.6826 20.1133 27.2066 20.6093L28.5293 19.8453L29.8626 22.1547L28.54 22.9187C28.7088 23.6297 28.7088 24.3703 28.54 25.0813L29.8626 25.8453L28.5293 28.1547L27.2066 27.3907C26.6758 27.8935 26.034 28.2644 25.3333 28.4733V30H22.6666V28.4733C21.9659 28.2644 21.3242 27.8935 20.7933 27.3907L19.4706 28.1547L18.1373 25.8453L19.46 25.0827V25.0827ZM24 26C24.5304 26 25.0391 25.7893 25.4142 25.4142C25.7893 25.0392 26 24.5304 26 24C26 23.4696 25.7893 22.9609 25.4142 22.5858C25.0391 22.2107 24.5304 22 24 22C23.4695 22 22.9608 22.2107 22.5858 22.5858C22.2107 22.9609 22 23.4696 22 24C22 24.5304 22.2107 25.0392 22.5858 25.4142C22.9608 25.7893 23.4695 26 24 26Z" fill="black"/>
</svg>
