<svg width="35" height="35" viewBox="0 0 35 35" fill="none" xmlns="http://www.w3.org/2000/svg">
<circle cx="17.5" cy="17.5" r="17.5" fill="#004696"/>
<path d="M28.7499 10.875V21C28.7499 21.7987 28.3224 22.53 27.6249 22.935V24.6562C27.6249 25.1175 27.2424 25.5 26.7812 25.5H26.2187C25.7574 25.5 25.3749 25.1175 25.3749 24.6562V23.25H17.4999V24.6562C17.4999 25.1175 17.1174 25.5 16.6562 25.5H16.0937C15.6324 25.5 15.2499 25.1175 15.2499 24.6562V22.935C14.5637 22.53 14.1249 21.7987 14.1249 21V10.875C14.1249 7.5 17.4999 7.5 21.4374 7.5C25.3749 7.5 28.7499 7.5 28.7499 10.875ZM18.6249 19.875C18.6249 19.2563 18.1187 18.75 17.4999 18.75C16.8812 18.75 16.3749 19.2563 16.3749 19.875C16.3749 20.4937 16.8812 21 17.4999 21C18.1187 21 18.6249 20.4937 18.6249 19.875ZM26.4999 19.875C26.4999 19.2563 25.9937 18.75 25.3749 18.75C24.7562 18.75 24.2499 19.2563 24.2499 19.875C24.2499 20.4937 24.7562 21 25.3749 21C25.9937 21 26.4999 20.4937 26.4999 19.875ZM26.4999 10.875H16.3749V15.375H26.4999V10.875ZM11.8749 13.6875C11.8412 12.135 10.5587 10.875 9.00619 10.9313C8.26032 10.9463 7.55096 11.257 7.0341 11.7949C6.51723 12.3329 6.23517 13.0541 6.24994 13.8C6.26463 14.4381 6.49507 15.0524 6.90368 15.5427C7.31229 16.033 7.87496 16.3705 8.49994 16.5V25.5H9.62494V16.5C10.9524 16.23 11.8749 15.0487 11.8749 13.6875Z" fill="white"/>
</svg>
