<svg width="47" height="40" viewBox="0 0 47 40" fill="none" xmlns="http://www.w3.org/2000/svg">
<circle cx="17.5" cy="17.5" r="17.5" fill="#004696"/>
<path d="M27.6245 9.63458V13.4775V17.725V21.568C27.6245 21.7914 27.4434 21.9725 27.22 21.9725H23.377H19.1295H14.882H9.34009V17.725V13.4775V9.23004H14.882H19.1295H23.377H27.22C27.4434 9.23004 27.6245 9.41114 27.6245 9.63458Z" fill="white"/>
<path d="M23.3769 13.4775H19.1294V9.23004H23.3769V13.4775ZM10.23 9.23004V13.4775H14.882V9.23004H10.23ZM23.3769 13.4775V17.725H27.6244V13.4775H23.3769V13.4775ZM14.882 13.4775V17.725H19.1295V13.4775H14.882V13.4775ZM19.1295 21.9725H23.377V17.725H19.1295V21.9725ZM10.23 21.9725H14.882V17.725H10.23V21.9725V21.9725Z" fill="#002E35"/>
<path d="M9.82553 26.6245C9.37868 26.6245 9.01648 26.2623 9.01648 25.8154V8.82553C9.01648 8.37868 9.37868 8.01648 9.82553 8.01648C10.2724 8.01648 10.6346 8.37868 10.6346 8.82553V25.8154C10.6346 26.2623 10.2724 26.6245 9.82553 26.6245Z" fill="white"/>
<path d="M10.23 26.5154C10.111 26.5844 9.97305 26.6245 9.82553 26.6245C9.37868 26.6245 9.01648 26.2623 9.01648 25.8154V8.82553C9.01648 8.37868 9.37868 8.01648 9.82553 8.01648C9.97305 8.01648 10.111 8.0566 10.23 8.12558C9.98846 8.26554 9.82553 8.52627 9.82553 8.82553V25.8154C9.82553 26.1147 9.98846 26.3754 10.23 26.5154Z" fill="#F9F9F9"/>
</svg>
